<svg id="visual" viewBox="0 0 960 540" width="960" height="540" xmlns="http://www.w3.org/2000/svg" xmlns:xlink="http://www.w3.org/1999/xlink" version="1.1"><rect x="0" y="0" width="960" height="540" fill="#931C1C"></rect><path d="M0 350L137 314L274 364L411 328L549 375L686 387L823 350L960 326L960 541L823 541L686 541L549 541L411 541L274 541L137 541L0 541Z" fill="#f5730a"></path><path d="M0 381L137 386L274 415L411 367L549 422L686 360L823 391L960 384L960 541L823 541L686 541L549 541L411 541L274 541L137 541L0 541Z" fill="#da5b09"></path><path d="M0 408L137 401L274 414L411 407L549 396L686 437L823 434L960 459L960 541L823 541L686 541L549 541L411 541L274 541L137 541L0 541Z" fill="#be4407"></path><path d="M0 478L137 471L274 445L411 450L549 465L686 451L823 442L960 449L960 541L823 541L686 541L549 541L411 541L274 541L137 541L0 541Z" fill="#a32d04"></path><path d="M0 477L137 498L274 479L411 508L549 490L686 493L823 484L960 511L960 541L823 541L686 541L549 541L411 541L274 541L137 541L0 541Z" fill="#871400"></path></svg>