<svg width="100" height="120" viewBox="0 0 100 120" fill="none" xmlns="http://www.w3.org/2000/svg">
<g id="Frame 1">
<path id="arrow3" d="M51.366 38.5C50.9811 39.1667 50.0189 39.1667 49.634 38.5L40.5407 22.75C40.1558 22.0833 40.6369 21.25 41.4067 21.25L59.5933 21.25C60.3631 21.25 60.8442 22.0833 60.4593 22.75L51.366 38.5Z" fill="#00C2FF" fill-opacity="0.6"/>
<path id="arrow2" d="M51.366 38.5C50.9811 39.1667 50.0189 39.1667 49.634 38.5L40.5407 22.75C40.1558 22.0833 40.6369 21.25 41.4067 21.25L59.5933 21.25C60.3631 21.25 60.8442 22.0833 60.4593 22.75L51.366 38.5Z" fill="#0057FF" fill-opacity="0.6"/>
<path id="arrow1" d="M51.366 38.5C50.9811 39.1667 50.0189 39.1667 49.634 38.5L40.5407 22.75C40.1558 22.0833 40.6369 21.25 41.4067 21.25L59.5933 21.25C60.3631 21.25 60.8442 22.0833 60.4593 22.75L51.366 38.5Z" fill="#0500FF" fill-opacity="0.6"/>
</g>
</svg>
